<svg width="484" height="289" viewBox="0 0 484 289" fill="none" xmlns="http://www.w3.org/2000/svg">
<path d="M126.466 12.2136C123.549 12.2169 120.753 13.3769 118.691 15.4391C116.629 17.5013 115.469 20.2973 115.466 23.2136V224.214C115.469 227.13 116.629 229.926 118.691 231.988C120.753 234.05 123.549 235.21 126.466 235.214H131.466C134.382 235.21 137.178 234.05 139.24 231.988C141.302 229.926 142.462 227.13 142.466 224.214V23.2136C142.462 20.2973 141.302 17.5013 139.24 15.4391C137.178 13.3769 134.382 12.2169 131.466 12.2136H126.466Z" fill="#E6E6E6"/>
<path d="M126.466 16.7136C124.742 16.7156 123.09 17.4011 121.872 18.6196C120.653 19.8382 119.968 21.4903 119.966 23.2136V224.214C119.968 225.937 120.653 227.589 121.872 228.808C123.09 230.026 124.742 230.712 126.466 230.714H131.466C133.189 230.712 134.841 230.026 136.06 228.808C137.278 227.589 137.964 225.937 137.966 224.214V23.2136C137.964 21.4903 137.278 19.8382 136.06 18.6196C134.841 17.4011 133.189 16.7156 131.466 16.7136H126.466Z" fill="white"/>
<path d="M208.466 12.2136C205.549 12.2169 202.753 13.3769 200.691 15.4391C198.629 17.5013 197.469 20.2973 197.466 23.2136V224.214C197.469 227.13 198.629 229.926 200.691 231.988C202.753 234.05 205.549 235.21 208.466 235.214H213.466C216.382 235.21 219.178 234.05 221.24 231.988C223.302 229.926 224.462 227.13 224.466 224.214V23.2136C224.462 20.2973 223.302 17.5013 221.24 15.4391C219.178 13.3769 216.382 12.2169 213.466 12.2136H208.466Z" fill="#E6E6E6"/>
<path d="M208.466 16.7136C206.742 16.7156 205.09 17.4011 203.872 18.6196C202.653 19.8382 201.968 21.4903 201.966 23.2136V224.214C201.968 225.937 202.653 227.589 203.872 228.808C205.09 230.026 206.742 230.712 208.466 230.714H213.466C215.189 230.712 216.841 230.026 218.06 228.808C219.278 227.589 219.964 225.937 219.966 224.214V23.2136C219.964 21.4903 219.278 19.8382 218.06 18.6196C216.841 17.4011 215.189 16.7156 213.466 16.7136H208.466Z" fill="white"/>
<path d="M290.466 12.2136C287.549 12.2169 284.753 13.3769 282.691 15.4391C280.629 17.5013 279.469 20.2973 279.466 23.2136V224.214C279.469 227.13 280.629 229.926 282.691 231.988C284.753 234.05 287.549 235.21 290.466 235.214H295.466C298.382 235.21 301.178 234.05 303.24 231.988C305.302 229.926 306.462 227.13 306.466 224.214V23.2136C306.462 20.2973 305.302 17.5013 303.24 15.4391C301.178 13.3769 298.382 12.2169 295.466 12.2136H290.466Z" fill="#E6E6E6"/>
<path d="M290.466 16.7136C288.742 16.7156 287.09 17.4011 285.872 18.6196C284.653 19.8382 283.968 21.4903 283.966 23.2136V224.214C283.968 225.937 284.653 227.589 285.872 228.808C287.09 230.026 288.742 230.712 290.466 230.714H295.466C297.189 230.712 298.841 230.026 300.06 228.808C301.278 227.589 301.964 225.937 301.966 224.214V23.2136C301.964 21.4903 301.278 19.8382 300.06 18.6196C298.841 17.4011 297.189 16.7156 295.466 16.7136H290.466Z" fill="white"/>
<path d="M372.466 12.2136C369.549 12.2169 366.753 13.3769 364.691 15.4391C362.629 17.5013 361.469 20.2973 361.466 23.2136V224.214C361.469 227.13 362.629 229.926 364.691 231.988C366.753 234.05 369.549 235.21 372.466 235.214H377.466C380.382 235.21 383.178 234.05 385.24 231.988C387.302 229.926 388.462 227.13 388.466 224.214V23.2136C388.462 20.2973 387.302 17.5013 385.24 15.4391C383.178 13.3769 380.382 12.2169 377.466 12.2136H372.466Z" fill="#E6E6E6"/>
<path d="M372.466 16.7136C370.742 16.7156 369.09 17.4011 367.872 18.6196C366.653 19.8382 365.968 21.4903 365.966 23.2136V224.214C365.968 225.937 366.653 227.589 367.872 228.808C369.09 230.026 370.742 230.712 372.466 230.714H377.466C379.189 230.712 380.841 230.026 382.06 228.808C383.278 227.589 383.964 225.937 383.966 224.214V23.2136C383.964 21.4903 383.278 19.8382 382.06 18.6196C380.841 17.4011 379.189 16.7156 377.466 16.7136H372.466Z" fill="white"/>
<path d="M454.466 12.2136C451.549 12.2169 448.753 13.3769 446.691 15.4391C444.629 17.5013 443.469 20.2973 443.466 23.2136V224.214C443.469 227.13 444.629 229.926 446.691 231.988C448.753 234.05 451.549 235.21 454.466 235.214H459.466C462.382 235.21 465.178 234.05 467.24 231.988C469.302 229.926 470.462 227.13 470.466 224.214V23.2136C470.462 20.2973 469.302 17.5013 467.24 15.4391C465.178 13.3769 462.382 12.2169 459.466 12.2136H454.466Z" fill="#E6E6E6"/>
<path d="M454.466 16.7136C452.742 16.7156 451.09 17.4011 449.872 18.6196C448.653 19.8382 447.968 21.4903 447.966 23.2136V224.214C447.968 225.937 448.653 227.589 449.872 228.808C451.09 230.026 452.742 230.712 454.466 230.714H459.466C461.189 230.712 462.841 230.026 464.06 228.808C465.278 227.589 465.964 225.937 465.966 224.214V23.2136C465.964 21.4903 465.278 19.8382 464.06 18.6196C462.841 17.4011 461.189 16.7156 459.466 16.7136H454.466Z" fill="white"/>
<path d="M145.223 77.244H113.708C110.993 77.2409 108.389 76.1609 106.469 74.2407C104.549 72.3205 103.469 69.7171 103.466 67.0015V65.4258C103.469 62.7102 104.549 60.1068 106.469 58.1866C108.389 56.2664 110.993 55.1864 113.708 55.1833H145.223C147.939 55.1864 150.542 56.2664 152.462 58.1866C154.383 60.1068 155.463 62.7102 155.466 65.4258V67.0015C155.463 69.7171 154.383 72.3205 152.462 74.2407C150.542 76.1609 147.939 77.241 145.223 77.244Z" fill="#6C63FF"/>
<path d="M229.223 110.244H197.708C194.992 110.241 192.389 109.161 190.469 107.241C188.549 105.321 187.469 102.717 187.466 100.002V98.4258C187.469 95.7102 188.549 93.1068 190.469 91.1866C192.389 89.2664 194.992 88.1864 197.708 88.1833H229.223C231.939 88.1864 234.542 89.2664 236.462 91.1866C238.382 93.1068 239.463 95.7102 239.466 98.4258V100.002C239.463 102.717 238.382 105.321 236.462 107.241C234.542 109.161 231.939 110.241 229.223 110.244Z" fill="#6C63FF"/>
<path d="M309.223 175.244H277.708C274.992 175.241 272.389 174.161 270.469 172.241C268.549 170.321 267.469 167.717 267.466 165.002V163.426C267.469 160.71 268.549 158.107 270.469 156.187C272.389 154.266 274.992 153.186 277.708 153.183H309.223C311.939 153.186 314.542 154.266 316.462 156.187C318.382 158.107 319.463 160.71 319.466 163.426V165.002C319.463 167.717 318.382 170.321 316.462 172.241C314.542 174.161 311.939 175.241 309.223 175.244Z" fill="#6C63FF"/>
<path d="M391.223 57.244H359.708C356.992 57.2409 354.389 56.1609 352.469 54.2407C350.549 52.3205 349.469 49.7171 349.466 47.0015V45.4258C349.469 42.7102 350.549 40.1068 352.469 38.1866C354.389 36.2664 356.992 35.1864 359.708 35.1833H391.223C393.939 35.1864 396.542 36.2664 398.462 38.1866C400.383 40.1068 401.463 42.7102 401.466 45.4258V47.0015C401.463 49.7171 400.383 52.3205 398.462 54.2407C396.542 56.1609 393.939 57.241 391.223 57.244Z" fill="#6C63FF"/>
<path d="M473.223 135.244H441.708C438.992 135.241 436.389 134.161 434.469 132.241C432.549 130.321 431.469 127.717 431.466 125.002V123.426C431.469 120.71 432.549 118.107 434.469 116.187C436.389 114.266 438.992 113.186 441.708 113.183H473.223C475.939 113.186 478.542 114.266 480.462 116.187C482.383 118.107 483.463 120.71 483.466 123.426V125.002C483.463 127.717 482.383 130.321 480.462 132.241C478.542 134.161 475.939 135.241 473.223 135.244Z" fill="#6C63FF"/>
<path d="M129.466 288.214C136.645 288.214 142.466 282.393 142.466 275.214C142.466 268.034 136.645 262.214 129.466 262.214C122.286 262.214 116.466 268.034 116.466 275.214C116.466 282.393 122.286 288.214 129.466 288.214Z" fill="#E6E6E6"/>
<path d="M211.466 288.214C218.645 288.214 224.466 282.393 224.466 275.214C224.466 268.034 218.645 262.214 211.466 262.214C204.286 262.214 198.466 268.034 198.466 275.214C198.466 282.393 204.286 288.214 211.466 288.214Z" fill="#E6E6E6"/>
<path d="M293.466 288.214C300.645 288.214 306.466 282.393 306.466 275.214C306.466 268.034 300.645 262.214 293.466 262.214C286.286 262.214 280.466 268.034 280.466 275.214C280.466 282.393 286.286 288.214 293.466 288.214Z" fill="#E6E6E6"/>
<path d="M375.466 288.214C382.645 288.214 388.466 282.393 388.466 275.214C388.466 268.034 382.645 262.214 375.466 262.214C368.286 262.214 362.466 268.034 362.466 275.214C362.466 282.393 368.286 288.214 375.466 288.214Z" fill="#E6E6E6"/>
<path d="M457.466 288.214C464.645 288.214 470.466 282.393 470.466 275.214C470.466 268.034 464.645 262.214 457.466 262.214C450.286 262.214 444.466 268.034 444.466 275.214C444.466 282.393 450.286 288.214 457.466 288.214Z" fill="#E6E6E6"/>
<path d="M28.7963 0C23.1009 1.97783e-06 17.5335 1.68888 12.7979 4.85306C8.06241 8.01724 4.37152 12.5146 2.192 17.7765C0.0124772 23.0383 -0.557787 28.8283 0.553328 34.4142C1.66444 40.0002 4.40702 45.1312 8.43426 49.1584C12.4615 53.1856 17.5925 55.9282 23.1784 57.0393C28.7644 58.1504 34.5544 57.5802 39.8162 55.4006C45.078 53.2211 49.5754 49.5302 52.7396 44.7947C55.9038 40.0591 57.5926 34.4917 57.5926 28.7963C57.5926 25.0147 56.8478 21.2702 55.4007 17.7764C53.9535 14.2827 51.8324 11.1082 49.1584 8.43423C46.4844 5.76025 43.3099 3.63913 39.8162 2.19199C36.3225 0.744839 32.5779 -3.93964e-06 28.7963 0ZM28.7963 53.3384C23.9423 53.3384 19.1974 51.899 15.1615 49.2023C11.1255 46.5056 7.97993 42.6726 6.1224 38.1882C4.26487 33.7037 3.77887 28.7691 4.72583 24.0084C5.67279 19.2477 8.01019 14.8747 11.4425 11.4424C14.8747 8.01017 19.2477 5.67276 24.0084 4.7258C28.7691 3.77884 33.7037 4.26486 38.1882 6.12239C42.6726 7.97992 46.5056 11.1255 49.2023 15.1615C51.899 19.1974 53.3384 23.9423 53.3384 28.7963C53.3384 32.0192 52.7036 35.2106 51.4703 38.1882C50.2369 41.1657 48.4292 43.8712 46.1502 46.1502C43.8713 48.4291 41.1658 50.2369 38.1882 51.4702C35.2106 52.7036 32.0192 53.3384 28.7963 53.3384Z" fill="#E6E6E6"/>
<path d="M27.2053 38.6444C27.0058 38.6444 26.8082 38.6051 26.6239 38.5288C26.4395 38.4524 26.2721 38.3404 26.131 38.1993L17.9265 29.9947C17.7854 29.8536 17.6735 29.6861 17.5972 29.5018C17.5208 29.3175 17.4815 29.1199 17.4815 28.9204C17.4815 28.7209 17.5208 28.5234 17.5972 28.3391C17.6735 28.1548 17.7854 27.9873 17.9265 27.8462C18.0676 27.7051 18.235 27.5932 18.4193 27.5169C18.6037 27.4405 18.8012 27.4012 19.0007 27.4012C19.2002 27.4012 19.3978 27.4405 19.5821 27.5169C19.7664 27.5932 19.9339 27.7051 20.075 27.8462L27.0272 34.7985L39.3504 17.9941C39.5887 17.6691 39.9464 17.4521 40.3447 17.3908C40.743 17.3296 41.1493 17.429 41.4743 17.6673C41.7992 17.9057 42.0162 18.2633 42.0775 18.6616C42.1388 19.0599 42.0393 19.4662 41.801 19.7912L28.4306 38.0236C28.301 38.2002 28.1347 38.3468 27.9432 38.4532C27.7517 38.5596 27.5395 38.6234 27.321 38.6402C27.2824 38.6432 27.2436 38.6444 27.2053 38.6444Z" fill="#6C63FF"/>
</svg>
